<svg xmlns="http://www.w3.org/2000/svg" data-name="Layer 1" viewBox="0 0 512 512"><path fill="#ffffff" d="M199.8125,417H151.5a7.49974,7.49974,0,0,0-7.5,7.5v35a7.49974,7.49974,0,0,0,7.5,7.5h48.3125a7.49974,7.49974,0,0,0,7.5-7.5v-35A7.49974,7.49974,0,0,0,199.8125,417Zm-7.5,35H159V432h33.3125ZM376,75H351.5V7.66113a7.45433,7.45433,0,0,0-.61719-3.13965v-.001l-.00293-.00684c-.02832-.06543-.05761-.12988-.08789-.19433l-.0039-.00977-.001-.001a7.47458,7.47458,0,0,0-3.76953-3.6748A7.30143,7.30143,0,0,0,346.207.332a7.4657,7.4657,0,0,0-5.31055.33985L321.99609,9.26172,303.09668.67188a7.49879,7.49879,0,0,0-6.207,0L277.99219,9.26172,259.09668.67188a7.50735,7.50735,0,0,0-6.20752,0L233.99268,9.26172,215.09668.67188a7.50739,7.50739,0,0,0-6.20752.001L189.99609,9.26172,171.104.67285c-.02063-.00928-.04187-.01562-.0625-.02466-.15722-.07007-.3186-.1311-.4812-.19018-.07715-.02832-.15332-.05908-.23071-.08447-.13892-.04542-.281-.08228-.4231-.11963-.10644-.02808-.21228-.05884-.319-.082-.1073-.0232-.21667-.03907-.32556-.05762-.14441-.02466-.28857-.05-.4331-.06616-.08155-.009-.16455-.01246-.24683-.0188-.17187-.01343-.34326-.02442-.51453-.02588C168.04468.00317,168.02271,0,168,0c-.05835,0-.115.00732-.1731.00879-.166.00391-.33166.01-.49646.0249-.10192.00928-.202.02344-.30273.03638-.13623.01782-.27185.03686-.40662.062-.1217.02271-.24121.05054-.36059.07886-.11182.02685-.223.054-.33325.08569-.13037.0376-.25843.07983-.38587.124-.099.03443-.19739.06958-.295.10816-.127.05005-.25122.10449-.37476.16113-.09826.04517-.19568.09131-.292.14063-.113.0581-.22363.11963-.33325.1831-.10425.0603-.20728.12207-.30884.1875-.09424.061-.18652.12451-.27783.18945-.10987.07813-.2179.15821-.32385.24219-.0785.0625-.15467.127-.2306.19239-.10876.09375-.21533.18969-.31909.29-.06946.06739-.13647.13672-.20349.20679-.09851.103-.19519.20777-.28821.31714-.06958.08154-.13562.16577-.20166.25024-.07959.10206-.1582.20435-.23278.31128-.07569.10791-.14612.21924-.21619.3313-.056.09009-.11279.17945-.16541.27246-.07971.14038-.152.28492-.22277.43091-.02637.05469-.05787.10547-.08326.16113-.0094.02076-.01538.042-.02453.06275-.0802.18042-.15052.36572-.21656.55347-.02185.06176-.04748.1228-.06762.18481-.05677.176-.10242.35693-.14636.53857-.01832.07544-.04212.14991-.058.22535-.02673.12841-.04236.26074-.06262.39135a7.467,7.467,0,0,0-.09863,1.13843L160.5,7.5188V75H136a37.54227,37.54227,0,0,0-37.5,37.5v362A37.54227,37.54227,0,0,0,136,512H376a37.54227,37.54227,0,0,0,37.5-37.5v-362A37.54227,37.54227,0,0,0,376,75ZM175.5,19.148l11.39209,5.1792a7.49367,7.49367,0,0,0,6.208,0l18.89306-8.58887,18.896,8.58984a7.50622,7.50622,0,0,0,6.207,0l18.89649-8.58984,18.896,8.58984a7.49879,7.49879,0,0,0,6.207,0l18.89746-8.58984,18.89942,8.58984a7.49879,7.49879,0,0,0,6.207,0L336.5,19.14648V120h-161ZM398.5,474.5A22.52586,22.52586,0,0,1,376,497H136a22.52554,22.52554,0,0,1-22.5-22.5v-362A22.52554,22.52554,0,0,1,136,90h24.5v30H151a7.5,7.5,0,0,0,0,15H361a7.5,7.5,0,0,0,0-15h-9.5V90H376a22.52586,22.52586,0,0,1,22.5,22.5ZM299,81.5H213a7.5,7.5,0,0,0,0,15h86a7.5,7.5,0,0,0,0-15ZM199.8125,352H151.5a7.49974,7.49974,0,0,0-7.5,7.5v35a7.49974,7.49974,0,0,0,7.5,7.5h48.3125a7.49974,7.49974,0,0,0,7.5-7.5v-35A7.49974,7.49974,0,0,0,199.8125,352Zm-7.5,35H159V367h33.3125ZM299,51.5H213a7.5,7.5,0,0,0,0,15h86a7.5,7.5,0,0,0,0-15ZM280.40625,287h-48.8125a7.49974,7.49974,0,0,0-7.5,7.5v35a7.49974,7.49974,0,0,0,7.5,7.5h48.8125a7.49943,7.49943,0,0,0,7.5-7.5v-35A7.49943,7.49943,0,0,0,280.40625,287Zm-7.5,35h-33.8125V302h33.8125ZM361,417H312.1875a7.49943,7.49943,0,0,0-7.5,7.5v35a7.49943,7.49943,0,0,0,7.5,7.5H361a7.49943,7.49943,0,0,0,7.5-7.5v-35A7.49943,7.49943,0,0,0,361,417Zm-7.5,35H319.6875V432H353.5ZM361,150H151a7.49974,7.49974,0,0,0-7.5,7.5v92A7.49974,7.49974,0,0,0,151,257H361a7.49943,7.49943,0,0,0,7.5-7.5v-92A7.49943,7.49943,0,0,0,361,150Zm-7.5,92h-195V165h195ZM280.40625,352h-48.8125a7.49974,7.49974,0,0,0-7.5,7.5v35a7.49974,7.49974,0,0,0,7.5,7.5h48.8125a7.49943,7.49943,0,0,0,7.5-7.5v-35A7.49943,7.49943,0,0,0,280.40625,352Zm-7.5,35h-33.8125V367h33.8125ZM361,352H312.1875a7.49943,7.49943,0,0,0-7.5,7.5v35a7.49943,7.49943,0,0,0,7.5,7.5H361a7.49943,7.49943,0,0,0,7.5-7.5v-35A7.49943,7.49943,0,0,0,361,352Zm-7.5,35H319.6875V367H353.5ZM361,287H312.1875a7.49943,7.49943,0,0,0-7.5,7.5v35a7.49943,7.49943,0,0,0,7.5,7.5H361a7.49943,7.49943,0,0,0,7.5-7.5v-35A7.49943,7.49943,0,0,0,361,287Zm-7.5,35H319.6875V302H353.5ZM199.8125,287H151.5a7.49974,7.49974,0,0,0-7.5,7.5v35a7.49974,7.49974,0,0,0,7.5,7.5h48.3125a7.49974,7.49974,0,0,0,7.5-7.5v-35A7.49974,7.49974,0,0,0,199.8125,287Zm-7.5,35H159V302h33.3125Zm88.09375,95h-48.8125a7.49974,7.49974,0,0,0-7.5,7.5v35a7.49974,7.49974,0,0,0,7.5,7.5h48.8125a7.49943,7.49943,0,0,0,7.5-7.5v-35A7.49943,7.49943,0,0,0,280.40625,417Zm-7.5,35h-33.8125V432h33.8125Z"/></svg>