<svg xmlns="http://www.w3.org/2000/svg" width="131.121" height="28.228" viewBox="0 0 131.121 28.228"><g transform="translate(15848.764 12862.374)"><path d="M12.8,37.119a8.531,8.531,0,0,0,2.5-6.05V29.854h3.91V31.07a8.547,8.547,0,0,0,8.555,8.552l5.134,0a7.816,7.816,0,0,0,2.028-15.363l4.4-4.4a.492.492,0,0,0,.006-.7L37.268,17.09a.49.49,0,0,0-.679-.021L27.655,26l-.015.015a.488.488,0,0,0,.012.673l2.09,2.09a.487.487,0,0,0,.628.053c.021-.018.041-.036.065-.053a3.781,3.781,0,0,1,.972-.587,3.911,3.911,0,0,1,4.265,6.376,3.943,3.943,0,0,1-2.763,1.153l-5.134,0a4.65,4.65,0,0,1-4.645-4.648V27.9a1.956,1.956,0,0,0-1.956-1.956h-9.29a.49.49,0,0,0-.489.489v4.636a4.662,4.662,0,0,1-5.457,4.577.483.483,0,0,0-.5.332L4.67,38.848a.492.492,0,0,0,.353.6c.2.039.4.074.617.1A8.447,8.447,0,0,0,12.8,37.125Z" transform="translate(-15853.418 -12877.921)" fill="#0169d1" fill-rule="evenodd"/><path d="M40.885,26.03l2.081-2.081.015-.018a.489.489,0,0,0,.065-.566l-.193-.193-1.681-1.681-.424-.424-.006-.006a.49.49,0,0,0-.344-.142H29.336a1.955,1.955,0,1,0,0,3.91h2.816a1.729,1.729,0,0,0,.175-.009h6.649l1.212,1.212a.491.491,0,0,0,.694,0l0,0Z" transform="translate(-15869.408 -12880.719)" fill="#0169d1" fill-rule="evenodd"/><path d="M128.829,41.472l.759,2.837.006.024a.491.491,0,0,0,.489.338c.036-.006.071-.012.1-.015l.021,0a4.091,4.091,0,0,1,.513-.027,3.907,3.907,0,1,1,0,7.814,3.943,3.943,0,0,1-1.014-.13,3.829,3.829,0,0,1-.545-.19l-.018-.009a.489.489,0,0,0-.608.207l-1.473,2.543a.486.486,0,0,0,.178.667,7.727,7.727,0,0,0,1.455.551,7.817,7.817,0,1,0,2.022-15.369,7.532,7.532,0,0,0-1.017.074c-.181.024-.359.053-.528.086a.49.49,0,0,0-.347.593l0,.006Z" transform="translate(-15939.496 -12894.643)" fill="#0169d1" fill-rule="evenodd"/><path d="M177.721,37.119a8.531,8.531,0,0,0,2.5-6.05V29.854h3.91V31.07a8.547,8.547,0,0,0,8.555,8.552l5.134,0a7.816,7.816,0,0,0,2.027-15.363l4.4-4.4a.492.492,0,0,0,.006-.7l-2.069-2.069a.49.49,0,0,0-.679-.021L192.575,26l-.015.015a.488.488,0,0,0,.012.673l2.09,2.09a.487.487,0,0,0,.628.053c.021-.018.041-.036.065-.053a3.781,3.781,0,0,1,.972-.587,3.911,3.911,0,0,1,4.265,6.376,3.944,3.944,0,0,1-2.763,1.153l-5.134,0a4.65,4.65,0,0,1-4.645-4.648V27.9a1.956,1.956,0,0,0-1.956-1.956h-9.29a.49.49,0,0,0-.489.489v4.636a4.663,4.663,0,0,1-5.457,4.577.483.483,0,0,0-.5.332l-.765,2.866a.492.492,0,0,0,.353.6c.2.039.4.074.617.1a8.447,8.447,0,0,0,7.164-2.425Z" transform="translate(-15969.453 -12877.921)" fill="#0169d1" fill-rule="evenodd"/><path d="M205.8,26.03l2.081-2.081.015-.018a.489.489,0,0,0,.065-.566l-.193-.193-1.681-1.681-.424-.424-.006-.006a.49.49,0,0,0-.344-.142H194.256a1.955,1.955,0,1,0,0,3.91h2.816a1.729,1.729,0,0,0,.175-.009H203.9l1.212,1.212a.491.491,0,0,0,.694,0l0,0Z" transform="translate(-15985.443 -12880.719)" fill="#0169d1" fill-rule="evenodd"/><path d="M293.749,41.472l.759,2.837.006.024a.491.491,0,0,0,.489.338c.036-.006.071-.012.1-.015l.021,0a4.091,4.091,0,0,1,.513-.027,3.907,3.907,0,1,1,0,7.814,3.944,3.944,0,0,1-1.014-.13,3.834,3.834,0,0,1-.546-.19l-.018-.009a.489.489,0,0,0-.608.207l-1.473,2.543a.486.486,0,0,0,.178.667,7.73,7.73,0,0,0,1.455.551,7.817,7.817,0,1,0,2.022-15.369,7.534,7.534,0,0,0-1.017.074c-.181.024-.359.053-.528.086a.49.49,0,0,0-.347.593l0,.006Z" transform="translate(-16055.531 -12894.643)" fill="#0169d1" fill-rule="evenodd"/><g transform="translate(-15750.851 -12862.374)"><path d="M17.141,28.228l1.944-1.646,9.963-8.434a11.6,11.6,0,0,0,4.139-8.877A9.347,9.347,0,0,0,23.767,0a9.461,9.461,0,0,0-7.184,3.274A9.461,9.461,0,0,0,9.4,0,9.347,9.347,0,0,0-.02,9.272a11.6,11.6,0,0,0,4.139,8.877l9.963,8.434,1.944,1.646.584-.2.53.2Z" transform="translate(0.02 0)" fill="#ed1c24" fill-rule="evenodd"/></g><g transform="translate(-15747.215 -12858.729)"><path d="M143.9,152.084a.687.687,0,0,1-.077-.065,5.48,5.48,0,0,1,0-7.877,5.729,5.729,0,0,1,2.556-1.441,5.824,5.824,0,0,1,2.949,0,.674.674,0,0,1,.49.827.693.693,0,0,1-.847.479,4.414,4.414,0,0,0-2.235,0A4.337,4.337,0,0,0,144.8,145.1a4.149,4.149,0,0,0,0,5.962l10.321,8.672,10.321-8.672a4.149,4.149,0,0,0,0-5.962,4.337,4.337,0,0,0-1.934-1.092,4.414,4.414,0,0,0-2.235,0,.693.693,0,0,1-.846-.479.674.674,0,0,1,.49-.827,5.824,5.824,0,0,1,2.949,0,5.727,5.727,0,0,1,2.556,1.441,5.48,5.48,0,0,1,0,7.877.691.691,0,0,1-.077.065L155.81,160.93v5.89a.673.673,0,0,1-.026.187l-.1.087h-1.126l-.1-.087a.645.645,0,0,1-.026-.186v-5.89L143.9,152.084Z" transform="translate(-142.15 -142.511)" fill="#fff"/></g></g></svg>