<?xml version="1.0" encoding="UTF-8"?>
<!DOCTYPE svg PUBLIC "-//W3C//DTD SVG 1.1//EN" "http://www.w3.org/Graphics/SVG/1.1/DTD/svg11.dtd">
<!-- Creator: CorelDRAW 2019 (64-Bit) -->
<svg xmlns="http://www.w3.org/2000/svg" xml:space="preserve" width="4.58333in" height="6.77777in" version="1.1" style="shape-rendering:geometricPrecision; text-rendering:geometricPrecision; image-rendering:optimizeQuality; fill-rule:evenodd; clip-rule:evenodd"
viewBox="0 0 4583.33 6777.77"
 xmlns:xlink="http://www.w3.org/1999/xlink"
 xmlns:xodm="http://www.corel.com/coreldraw/odm/2003">
 <defs>
  <style type="text/css">
   <![CDATA[
    .fil0 {fill:#B3B3B3;fill-opacity:0.800000}
   ]]>
  </style>
 </defs>
 <g id="Layer_x0020_1">
  <metadata id="CorelCorpID_0Corel-Layer"/>
  <path class="fil0" d="M4583.33 5888.06c-93.39,-30.65 -789.4,-336.42 -849.19,-412.46 -25.65,-16.98 -52.96,-32.02 -77.1,-51.38 -30.69,-16.26 -49.42,-37.47 -57.82,-74.97 -11.3,-48.76 -25.93,-96.94 -39.12,-145.08 -17.6,-48.42 -18.43,-99.8 -28.76,-149.63 -5.99,-27.86 -12.74,-52.21 -43.74,-60.61 -29.72,-14.84 -58.06,-0.59 -86.06,5.34 -57.24,12.33 -88.5,-5.58 -97.59,-66.22 -6.34,-43.63 -18.32,-87.54 -20.46,-130.62 -4.61,-96.22 -19.15,-198.36 73.28,-269.2 107.76,-218.3 187.31,-446.89 251.91,-681.54 14.7,-52.83 39.4,-97.28 109.58,-99.18 42.05,-1.1 76.56,-30.89 90.26,-76.31 41.43,-137.61 80.86,-276.05 144.7,-405.98 19.56,-94.77 66.5,-182.69 70.59,-281.28 -0.96,-19.7 4.34,-39.39 2.41,-58.99 -2.17,-7.92 -5.79,-14.81 -11.26,-20.97 -3.69,-2.28 -7.16,-4.86 -10.43,-7.85 1.89,-42.11 5.17,-84.09 3.69,-125.97 -2.1,-58.85 -30.34,-107.62 -87.75,-122.67 -53.03,-13.91 -62.81,-43.08 -59.54,-90.19 12.09,-185.06 22.63,-370.51 33.68,-555.81 2.14,-6.4 1.31,-12.22 -1.96,-17.32 2.07,-3.1 2.31,-6.78 -0.14,-11.02 -5.37,-56.24 -10.13,-112.37 -16.67,-168.37 -14.91,-134.06 -29.44,-269.54 -99.87,-388.31 -135.51,-229.31 -323.88,-405.26 -560.94,-525.82 -200.32,-102 -418.07,-152.8 -637.12,-196.46 -454.98,-91.46 -860.17,9.99 -1213.77,312.17 1.34,2.96 2.17,6.17 2.72,9.47 -40.15,25.52 -71.43,59.54 -93.67,101.31 -42.46,79.14 -104.21,143.33 -168.06,203.21 -118.12,110.48 -182.69,238.48 -163.54,401.37 -4.34,1.93 -8.81,4.17 -13.16,7.47 -5.72,6.06 -10.74,12.95 -14.43,20.52 -28.48,132.31 7.37,263.86 6.82,395.78 32.58,111.54 33.23,226.74 42.6,341.1 5.17,62.74 -12.36,105.24 -73.04,126.69 -77.11,27.07 -107.89,89.22 -118.09,163.61 -10.57,77.93 -12.98,155.55 8.41,233.24 30.03,108.92 61.64,217.23 96.7,324.46 55.65,90.64 89.57,191.61 109.61,293.41 13.09,67.63 41.6,106.41 100.52,128.14 48.69,17.67 75.21,51 85.89,100.73 61.85,179.56 224.08,505.61 285.04,739.37 32.68,125.28 32.92,256.21 -15.84,395.51 -45.73,48.76 -90.95,-2.24 -136.33,-3.06 -45.43,-0.83 -83.89,-5 -94.98,51 -34.74,109.17 -53.48,222.7 -87.95,331.97 -18.74,59.68 -49,103.21 -105.89,131.93 -302.53,152.66 -685.89,293.47 -1017.48,377.5l0 891.68 4583.33 0 0 -889.71z"/>
 </g>
</svg>
